<?xml version="1.0" encoding="utf-8"?>
<!-- Generator: Adobe Illustrator 23.0.0, SVG Export Plug-In . SVG Version: 6.00 Build 0)  -->
<svg version="1.1" id="Layer_1" xmlns="http://www.w3.org/2000/svg" xmlns:xlink="http://www.w3.org/1999/xlink" x="0px" y="0px"
	 viewBox="0 0 241 250" style="enable-background:new 0 0 241 250;" xml:space="preserve">
<style type="text/css">
	.st0{fill:#00AEEF;}
	.st1{opacity:0.47;}
	.st2{fill:#FFFFFF;}
	.st3{fill:#90593B;}
	.st4{fill:none;stroke:#231F20;stroke-width:0.76;}
	.st5{fill:none;stroke:#231F20;stroke-width:0.99;}
	.st6{fill:#F5A62B;}
	.st7{fill:none;stroke:#F5A62B;stroke-width:0.76;}
	.st8{fill:#231F20;}
	.st9{fill:none;stroke:#231F20;stroke-width:0.64;}
	.st10{fill:#43454A;}
	.st11{fill:#A3A3A3;}
	.st12{fill:none;stroke:#231F20;stroke-width:0.3;}
	.st13{fill:#C88F49;}
	.st14{fill:none;stroke:#A3A3A3;stroke-width:1.29;stroke-dasharray:3.44,2.15;}
	.st15{fill:none;stroke:#A3A3A3;stroke-width:1.29;stroke-dasharray:4.24,2.95;}
	.st16{fill:none;stroke:#A3A3A3;stroke-width:1.29;stroke-dasharray:3.94,2.65;}
	.st17{fill:none;stroke:#A3A3A3;stroke-width:1.29;stroke-dasharray:3.88,2.59;}
	.st18{fill:none;stroke:#A3A3A3;stroke-width:1.29;stroke-dasharray:3.64,2.36;}
	.st19{fill:none;stroke:#A3A3A3;stroke-width:1.29;}
	.st20{fill:none;stroke:#066EB7;stroke-width:1.02;}
	.st21{fill:none;stroke:#231F20;stroke-width:1.02;}
	.st22{fill:none;stroke:#A3A3A3;stroke-width:1.02;}
	.st23{font-family:'OpenSans-Bold';}
	.st24{font-size:9.04px;}
	.st25{fill:#D5D7D8;}
	.st26{fill:#ABADB0;}
	.st27{fill:none;stroke:#A3A3A3;stroke-width:2;}
	.st28{fill:none;stroke:#69B96D;stroke-width:1.36;}
</style>
<title>01</title>
<g>
	<g>
		<g>
			<g>
				<path class="st0" d="M99.9,202.8c48.9,0,88.6-39.7,88.6-88.6s-39.7-88.6-88.6-88.6s-88.6,39.7-88.6,88.6
					C11.3,163.1,50.9,202.8,99.9,202.8"/>
				<g class="st1">
					<g>
						<g>
							<g>
								<path class="st2" d="M19.9,118.6c0,0-1.6-9,2.5-24.2c0,0,3.2-2.8,3,0.8s-1.6,20.4-1.1,22.6S21.2,125.1,19.9,118.6"/>
								<path class="st2" d="M27.4,85.8l-3,0.3c0,0-1.9,1.1-1-2.3s1.7-2.6,2.6-2.4s2-0.2,1.6,1.4S29.1,85.2,27.4,85.8"/>
								<path class="st2" d="M28.1,73.9c2.6-7,7.4-13,13.8-17c0,0,4.4-1,2.3,2s-9.5,7-12.8,15.2c0,0-0.3,2.9-2.2,2.4
									S28.1,74.1,28.1,73.9"/>
								<path class="st2" d="M48.2,49c0,0,12.6-11.6,21.7-13.3c0,0,4.9,0.1,2.5,1.8s-1.6-2.2-21.3,12.2C51.1,49.7,45.5,53.7,48.2,49
									"/>
								<path class="st2" d="M83.4,31c0,0,7.9-4.7,29.3-0.9c1,0.3,1.6,1.3,1.4,2.3c-0.3,1.9-1.7,1.6-4.5,0.9s-5.8-3.9-24.5-0.3
									L83.4,31z"/>
								<path class="st2" d="M119.8,35.8c0,0-1.1,0.3-0.6-1.6c0.5-1.9,0.1-3,1.8-2.6s4.5,1.1,3.1,3
									C122.7,36.5,119.8,35.8,119.8,35.8"/>
								<path class="st2" d="M77,36l2.8-1.4c0.5-0.6,0.7-1.4,0.6-2.2c-0.4-1-0.3-1.6-1.8-1s-3.6,1.5-2.7,2.4S75.8,36.5,77,36"/>
								<path class="st2" d="M134.3,37.8c0,0,8.6,3.1,19.7,14.2c0,0,0.8,4.2-2.2,2.2s-16.9-11.6-18.9-12.3S128.1,35.7,134.3,37.8"/>
								<path class="st2" d="M159,60.7l1.3-2.7c0,0,0-2.2,2.5,0.2s1.4,2.7,0.8,3.4s-0.9,1.8-2,0.7S158.7,62.3,159,60.7"/>
								<path class="st2" d="M168.8,67.2c4.8,5.8,7.6,13,7.9,20.4c0,0-1.4,4.3-2.9,1.1s-1.3-11.8-6.8-18.7c0,0-2.3-1.8-0.9-3.1
									C167.4,65.6,168.8,67.2,168.8,67.2"/>
								<path class="st2" d="M180.4,97.1c0,0,3.7,16.7,0.7,25.5c0,0-2.5,4.2-2.8,1.3s2.7-0.3,0.1-24.6
									C178.5,99.2,177.8,92.4,180.4,97.1"/>
								<path class="st2" d="M178.4,136.6c0,0,0.1,9.2-13.9,25.8c-0.7,0.7-1.9,0.8-2.7,0l0,0c-1.5-1.3-0.5-2.2,1.5-4.4
									s6.3-3,12.5-21.1L178.4,136.6z"/>
								<path class="st2" d="M41.5,167.1c0,0-8.1-4.4-15.9-24.7c-0.3-1,0.3-2.1,1.3-2.4l0,0c1.8-0.7,2.2,0.6,3.1,3.4
									s-0.4,6.9,12.4,21.1L41.5,167.1z"/>
								<path class="st2" d="M26.9,133.4c0,0,0.8,0.8-1.1,1.4s-2.6,1.4-3.1-0.2s-1.4-4.5,1-4.2S26.9,133.4,26.9,133.4"/>
								<path class="st2" d="M177.2,128.4l-0.2,3.1c0,0,0.5,1.4,1.6,1.6s1.6,0.6,1.8-1.1c0.3-1.6,0.5-3.9-0.7-3.5
									S177.5,127.2,177.2,128.4"/>
							</g>
						</g>
					</g>
				</g>
				<path class="st3" d="M127.8,54c-0.1-2.9-2.5-5.1-5.3-5.1c-0.5,0-0.9,0.1-1.4,0.2V31c0,0,0-17.4-17.4-17.4H88.4
					c0,0-17.4,0-17.4,17.4v18.2c-0.5-0.1-1-0.2-1.5-0.2c-2.8-0.2-5.2,2-5.4,4.8c-0.2,2.8,2,5.2,4.8,5.4c0.2,0,0.4,0,0.6,0
					c0.5,0,1-0.1,1.5-0.2v13.7c0,0,0,17.4,17.4,17.4h4.2v9.2h7v-9.2h4.1c0,0,17.4,0,17.4-17.4V59c0.5,0.1,0.9,0.2,1.4,0.2
					C125.4,59.2,127.8,57,127.8,54"/>
				<path class="st4" d="M127.8,54c-0.1-2.9-2.5-5.1-5.3-5.1c-0.5,0-0.9,0.1-1.4,0.2V31c0,0,0-17.4-17.4-17.4H88.4
					c0,0-17.4,0-17.4,17.4v18.2c-0.5-0.1-1-0.2-1.5-0.2c-2.8-0.2-5.2,2-5.4,4.8c-0.2,2.8,2,5.2,4.8,5.4c0.2,0,0.4,0,0.6,0
					c0.5,0,1-0.1,1.5-0.2v13.7c0,0,0,17.4,17.4,17.4h4.2v9.2h7v-9.2h4.1c0,0,17.4,0,17.4-17.4V59c0.5,0.1,0.9,0.2,1.4,0.2
					C125.4,59.2,127.7,57,127.8,54z"/>
				<path class="st2" d="M171.6,121.8c2.2-3.7,0.9-8.5-2.8-10.7c-0.7-0.4-1.6-0.7-2.4-0.9c1.7-4-0.1-8.6-4.1-10.3
					c-4-1.7-8.6,0.1-10.3,4.1c-0.4,1-0.6,2-0.6,3.1c0,1.4,0.4,2.9,1.2,4.1c-3.7,2.2-4.9,6.9-2.7,10.6c-4.3,0.3-7.5,4.1-7.2,8.4
					c0.2,2.9,2.1,5.4,4.8,6.6c0,0.1,0,0.2,0,0.3c0,4.3,3.5,7.8,7.8,7.8c0.3,0,0.6,0,0.9-0.1v16h-60v-7.5H90v-23h3.9v-9.6l-30.6-26
					l-14.7,12v-7.7H43v12.3l-12.7,10.4v8.6h4.1v23h-3.8v7.5h-6.1c25.9,41.5,80.5,54.3,122.1,28.4c11.5-7.2,21.2-16.9,28.4-28.4h-9.2
					v-16c4.2-0.1,7.6-3.6,7.6-7.8v-0.1c4.1-1.3,6.4-5.7,5.2-9.8C177.6,124.2,174.8,122.1,171.6,121.8"/>
				<path class="st5" d="M171.6,121.8c2.2-3.7,0.9-8.5-2.8-10.7c-0.7-0.4-1.6-0.7-2.4-0.9c1.7-4-0.1-8.6-4.1-10.3
					c-4-1.7-8.6,0.1-10.3,4.1c-0.4,1-0.6,2-0.6,3.1c0,1.4,0.4,2.9,1.2,4.1c-3.7,2.2-4.9,6.9-2.7,10.6c-4.3,0.3-7.5,4.1-7.2,8.4
					c0.2,2.9,2.1,5.4,4.8,6.6c0,0.1,0,0.2,0,0.3c0,4.3,3.5,7.8,7.8,7.8c0.3,0,0.6,0,0.9-0.1v16h-60v-7.5H90v-23h3.9v-9.6l-30.6-26
					l-14.7,12v-7.7H43v12.3l-12.7,10.4v8.6h4.1v23h-3.8v7.5h-6.1c25.9,41.5,80.5,54.3,122.1,28.4c11.5-7.2,21.2-16.9,28.4-28.4h-9.2
					v-16c4.2-0.1,7.6-3.6,7.6-7.8v-0.1c4.1-1.3,6.4-5.7,5.2-9.8C177.6,124.2,174.8,122.1,171.6,121.8L171.6,121.8z"/>
				<path class="st6" d="M131.4,34.3c-2.4-0.1-4.7,0.3-7,1c0-0.4,0.1-0.8,0.1-1.2c0-16.6-12.9-30-28.8-30s-28.9,13.4-28.9,30
					c0,2.2,0.2,4.5,0.7,6.6c8.8,2.3,17.9,3.5,27,3.4c10,0.1,19.9-1.3,29.5-4.2l0,0l11.2-2.8C135.2,37.2,133.9,34.3,131.4,34.3"/>
				<path class="st7" d="M131.4,34.3c-2.4-0.1-4.7,0.3-7,1c0-0.4,0.1-0.8,0.1-1.2c0-16.6-12.9-30-28.8-30s-28.9,13.4-28.9,30
					c0,2.2,0.2,4.5,0.7,6.6c8.8,2.3,17.9,3.5,27,3.4c10,0.1,19.9-1.3,29.5-4.2l0,0l11.2-2.8C135.2,37.2,133.8,34.3,131.4,34.3z"/>
				<path class="st8" d="M83.1,57.3c1.2,0,2.1-0.9,2.1-2.1c0-1.2-0.9-2.1-2.1-2.1S81,54,81,55.2l0,0C81,56.5,81.9,57.3,83.1,57.3"/>
				<ellipse class="st4" cx="83.1" cy="55.2" rx="2.1" ry="2.1"/>
				<path class="st8" d="M108.8,57.3c1.2,0,2.1-0.9,2.2-2.1c0-1.2-0.9-2.1-2.1-2.2s-2.1,0.9-2.2,2.1l0,0
					C106.7,56.5,107.7,57.3,108.8,57.3L108.8,57.3"/>
				<ellipse class="st4" cx="108.8" cy="55.2" rx="2.1" ry="2.1"/>
				<path class="st3" d="M72.3,111.2c0,0-21.8,49.6-36.7,50.1s-15.2-35.9-15.2-35.9l-1.1-9.4c0,0,7.6,39.6,14.7,39.3
					c0,0,11.8,4.5,31.5-42.9l7.1-1.2"/>
				<path class="st9" d="M72.3,111.2c0,0-21.8,49.6-36.7,50.1s-15.2-35.9-15.2-35.9l-1.1-9.4c0,0,7.6,39.6,14.7,39.3
					c0,0,11.8,4.5,31.5-42.9l7.1-1.2"/>
			</g>
		</g>
		<polygon class="st6" points="66.4,123.7 65.7,126.8 62.3,115.2 65.7,112.1 69.1,111.7 		"/>
		<g>
			<g>
				<path class="st10" d="M0,84.4l3.8-0.2l13.9-0.8l4.3,64.1c0,0,1.2,4.6-2.6,5.4c0,0-5.5,1.4-6-3.3L10.1,103c0,0,0.2-1.8-2.9-4.1
					l-5.4-2.5l0.1-1.9L9.1,94l-0.3-2.3H1.2L0,84.4z"/>
				<path class="st11" d="M4.5,84.2c0,0-2.6-13,3.8-13.1s7,1.6,8.2,7.1L5.9,80.3l0.5,1.6l9.8-1l1.5,2.8L4.5,84.2z"/>
				<path class="st3" d="M11.1,99.9c0,0,2.7,7.7,1.6,11.7c-0.8,2.5-2.3,4.7-4.3,6.4C8.4,118.2-5.3,100.9,11.1,99.9"/>
				<path class="st9" d="M11.1,99.9c0,0,2.7,7.7,1.6,11.7c-0.8,2.5-2.3,4.7-4.3,6.4C8.4,118.2-5.3,100.9,11.1,99.9z"/>
				<path class="st10" d="M141.5,206.4l4.6,11.1c0,0,1.1,3.8,7.1,2.4l22.4-5.2l0.2-0.1l0.2,0.1l22.3-5.2c6-1.4,5.3-5.3,5.3-5.3
					l-0.7-12l-0.8,0.2l-59.7,13.8L141.5,206.4z"/>
			</g>
		</g>
		<polygon class="st10" points="203.6,187.8 203.6,187.8 204.3,190.8 139.6,205.6 138.9,202.6 		"/>
		<g>
			<g>
				<path class="st10" d="M156.6,181.4l10.7-2.5l0.2,0.1l0.2-0.1l10.3-2.4l-0.4-1.6c-0.1-0.5-0.6-0.8-1-0.7c0,0,0,0-0.1,0l-19.6,4.5
					c-0.5,0.1-0.8,0.6-0.7,1.1l0,0L156.6,181.4z M140.3,201.2l-0.7-12c0,0-0.7-3.9,5.3-5.3l10.7-2.5l-0.7-2.9
					c-0.1-0.5,0.2-1,0.6-1.1c0,0,0,0,0.1,0l21.6-5c0.5-0.1,1,0.2,1.1,0.7l0,0l0.7,2.9l11-2.6c6-1.4,7.1,2.4,7.1,2.4l4.6,11.1
					l-0.8,0.2l-59.7,13.8L140.3,201.2z"/>
				<path class="st2" d="M186.5,186.6c0.5-0.1,1.1,0.2,1.2,0.7l0,0l2.4,10.3c0.1,0.5-0.2,1.1-0.7,1.2l0,0l-3.4,0.8
					c-0.5,0.1-1.1-0.2-1.2-0.7l0,0l-2.4-10.3c-0.1-0.5,0.2-1.1,0.7-1.2l0,0L186.5,186.6z"/>
				<path class="st12" d="M186.5,186.6c0.5-0.1,1.1,0.2,1.2,0.7l0,0l2.4,10.3c0.1,0.5-0.2,1.1-0.7,1.2l0,0l-3.4,0.8
					c-0.5,0.1-1.1-0.2-1.2-0.7l0,0l-2.4-10.3c-0.1-0.5,0.2-1.1,0.7-1.2l0,0L186.5,186.6z"/>
				<path class="st2" d="M157.3,193.4c0.5-0.1,1.1,0.2,1.2,0.7l0,0l2.4,10.3c0.1,0.5-0.2,1.1-0.7,1.2l0,0l-3.4,0.8
					c-0.5,0.1-1.1-0.2-1.2-0.7l0,0l-2.4-10.3c-0.1-0.5,0.2-1.1,0.7-1.2l0,0L157.3,193.4z"/>
				<path class="st12" d="M157.3,193.4c0.5-0.1,1.1,0.2,1.2,0.7l0,0l2.4,10.3c0.1,0.5-0.2,1.1-0.7,1.2l0,0l-3.4,0.8
					c-0.5,0.1-1.1-0.2-1.2-0.7l0,0l-2.4-10.3c-0.1-0.5,0.2-1.1,0.7-1.2l0,0L157.3,193.4z"/>
				<path class="st3" d="M165.2,168.1l0.8-0.2c0,0,9.4,3.9,6,7.6s-8.8,6.5-11.4,5.1c0,0-3.1-3.7-0.4-10.9
					c-13.9-48.8-42-54.3-42-54.3l-1.5-5.9C144.8,112.7,159.9,151.1,165.2,168.1"/>
				<path class="st9" d="M165.2,168.1l0.8-0.2c0,0,9.4,3.9,6,7.6s-8.8,6.5-11.4,5.1c0,0-3.1-3.7-0.4-10.9
					c-13.9-48.8-42-54.3-42-54.3l-1.5-5.9C144.8,112.7,159.9,151.1,165.2,168.1z"/>
				<path class="st6" d="M126,198.9v-94.6c0,0,0-6-6.1-6H72.1c0,0-6,0-6,6v91.8C85.1,203.9,106.3,204.9,126,198.9"/>
			</g>
		</g>
		<rect x="126.4" y="112.2" class="st6" width="2.9" height="9.1"/>
		<g>
			<g>
				<path class="st10" d="M126,198.9v-87.7h-12.2v-14H108v14H82.7v-14h-5.8v14H66v84.9C85.1,203.9,106.2,204.9,126,198.9"/>
				<path class="st6" d="M95.3,178.9c0.3-1.7-0.8-3.3-2.5-3.5s-3.3,0.8-3.5,2.5c-0.3,1.7,0.8,3.2,2.5,3.5
					C93.5,181.6,95,180.4,95.3,178.9 M102.1,148.6l-4.4,25.2c2.5,2.9,2.1,7.3-0.8,9.8s-7.3,2.1-9.8-0.8c-2.5-2.9-2.1-7.3,0.8-9.8
					c0.3-0.3,0.7-0.5,1-0.7l4.4-25.2c-4.6-3.3-5.7-9.7-2.4-14.3c1.3-1.8,3.2-3.2,5.3-3.8l0.2,0.8l-1.1,6.3l3.8,4l4.9-2.4l1.1-6.3
					l0.4-0.7c4.5,3.4,5.4,9.9,1.9,14.4C106.1,146.8,104.2,148.1,102.1,148.6"/>
				<path class="st13" d="M69.6,36c0,0,11.1,3.1,11.1,1.5S78.5,12.4,92.1,6.9C92.1,6.9,69.6,13.2,69.6,36"/>
				<path class="st9" d="M69.6,52c-1,0-1.8,0.8-1.8,1.8s0.8,1.8,1.8,1.8l0,0"/>
			</g>
		</g>
		<line class="st9" x1="69.6" y1="50.5" x2="69.6" y2="53.8"/>
		<g>
			<g>
				<path class="st9" d="M122,52c1,0,1.8,0.8,1.8,1.8s-0.8,1.8-1.8,1.8"/>
			</g>
		</g>
		<line class="st9" x1="122" y1="50.5" x2="122" y2="53.8"/>
		<g>
			<g>
				<path class="st2" d="M222.2,22.5v-5.6c0,0,0-10.6-10.6-10.6h-35.2c-10.6,0-10.6,10.6-10.6,10.6v5.5c0,0.5,0,1.1,0.1,1.6
					c-19.2,16.1-21.7,44.7-5.6,63.8s44.7,21.7,63.8,5.6s21.7-44.7,5.6-63.8C227.5,27,225,24.5,222.2,22.5"/>
				<path class="st14" d="M221.5,13.1c-1-3.3-3.7-5.8-7.1-6.5"/>
				<line class="st15" x1="206.5" y1="6.3" x2="200.8" y2="6.3"/>
				<line class="st15" x1="185.7" y1="6.3" x2="180" y2="6.3"/>
				<path class="st14" d="M172.6,6.8c-3.3,1.1-5.7,3.9-6.4,7.3"/>
				<path class="st16" d="M162.5,27.1c-7.4,7.6-11.9,17.6-12.7,28.2"/>
				<path class="st17" d="M149.9,63.2c2.2,21.9,19.9,39.1,41.9,40.7"/>
				<path class="st17" d="M199.6,103.8c21.9-2.2,39.1-19.9,40.7-41.9"/>
				<path class="st18" d="M240.2,54.5c-1.1-11.7-6.7-22.5-15.6-30.1"/>
				<path class="st19" d="M223.6,23.5c-0.5-0.4-0.9-0.8-1.4-1.1v-1.8 M240.3,60.7c0-0.6,0-1.3,0-1.9s0-1.2,0-1.8 M193.1,103.9
					c0.6,0,1.3,0,1.9,0s1.3,0,1.9,0 M149.8,56.7c0,0.7,0,1.3,0,2s0,1.3,0,1.9 M165.8,20.8v1.7c0,0.5,0,1.1,0.1,1.6
					c-0.5,0.4-1,0.9-1.5,1.3 M166,15.1c-0.1,0.6-0.2,1.1-0.2,1.7v1.7 M178.5,6.3h-2.1c-0.6,0-1.1,0-1.7,0.1 M192.7,6.3h-4.1
					 M199.3,6.3h-4 M213.3,6.4c-0.6-0.1-1.1-0.1-1.7-0.1h-2.1 M222.2,18.5v-1.7c0-0.6-0.1-1.1-0.2-1.7"/>
				<path class="st6" d="M195.3,101.2c23.3,0,42.2-18.9,42.2-42.2s-18.9-42.2-42.2-42.2S153.1,35.7,153.1,59S172,101.2,195.3,101.2"
					/>
			</g>
		</g>
		<rect x="170.9" y="15.1" class="st2" width="47.9" height="76.7"/>
		<rect x="170.9" y="15.1" class="st20" width="47.9" height="76.7"/>
		<g>
			<g>
				<path class="st11" d="M195.6,100.1c3.2,0,5.9-2.3,5.9-5.2s-2.6-5.2-5.9-5.2s-5.9,2.3-5.9,5.2S192.3,100.1,195.6,100.1"/>
				<path class="st21" d="M195.6,100.1c3.2,0,5.9-2.3,5.9-5.2s-2.6-5.2-5.9-5.2s-5.9,2.3-5.9,5.2S192.4,100.1,195.6,100.1z"/>
				<path class="st11" d="M172,21.9h45.6v66.7H172V21.9z M191,94.8c0-2.1,1.7-3.9,3.9-3.9s3.9,1.7,3.9,3.9s-1.7,3.9-3.9,3.9
					S191,96.8,191,94.8L191,94.8 M203.3,19.1h-16.9v-2.7h16.9V19.1z M178.3,8.9c0,0-9.3,0-9.3,9.3v73.4c0,0,0,0.1,0,0.3
					c6.3,5.1,14,8.2,22.1,9h8.4c7.6-0.8,14.9-3.6,21.1-8.2c0-0.4,0.1-0.7,0.1-1.1V18.2c0,0,0-9.3-9.3-9.3H178.3z"/>
			</g>
		</g>
		<rect x="183.3" y="16.8" class="st2" width="23.1" height="2.9"/>
		<rect x="183.3" y="16.8" class="st22" width="23.1" height="2.9"/>
		<text transform="matrix(1 0 0 1 184.92 36.67)" class="st11 st23 st24">T</text>
		<text transform="matrix(1 0 0 1 190.51 36.67)" class="st11 st23 st24">AS</text>
		<text transform="matrix(1 0 0 1 202.45 36.67)" class="st11 st23 st24">K</text>
		<text transform="matrix(1 0 0 1 208.81 36.67)" class="st11 st23 st24">S</text>
		<rect x="174.5" y="28.5" class="st25" width="8.6" height="9.2"/>
		<g>
			<g>
				<path class="st26" d="M180.3,32.7c0,0.9-0.7,1.6-1.6,1.6c-0.9,0-1.6-0.7-1.6-1.6c0-0.9,0.7-1.6,1.6-1.6l0,0
					C179.6,31,180.3,31.8,180.3,32.7"/>
				<path class="st26" d="M178.8,33.5L178.8,33.5c-1.6,0-2.9,1.3-2.9,2.9v1.1h5.9v-1.1C181.7,35,180.4,33.5,178.8,33.5"/>
			</g>
		</g>
		<line class="st27" x1="196.5" y1="52.5" x2="211.3" y2="52.5"/>
		<line class="st27" x1="196.5" y1="71.4" x2="211.3" y2="71.4"/>
		<polygon class="st11" points="184.9,51.5 184.9,48.2 175.5,48.2 175.5,57.5 181.1,57.5 180.7,56.8 176.3,56.8 176.3,49 184.1,49 
			184.1,53 		"/>
		<polygon class="st11" points="184.9,70.6 184.9,67.2 175.5,67.2 175.5,76.6 181.1,76.6 180.7,75.8 176.3,75.8 176.3,67.9 
			184.1,67.9 184.1,71.9 		"/>
		<polyline class="st28" points="179.1,50.2 182.4,57.2 192.3,44.8 		"/>
		<polyline class="st28" points="179.1,69.2 182.4,76.2 192.3,63.8 		"/>
	</g>
</g>
</svg>
